<?xml version="1.0" encoding="utf-8"?>
<!-- Generator: Adobe Illustrator 19.2.1, SVG Export Plug-In . SVG Version: 6.00 Build 0)  -->
<svg version="1.1" id="Layer_1" xmlns="http://www.w3.org/2000/svg" xmlns:xlink="http://www.w3.org/1999/xlink" x="0px" y="0px"
	 viewBox="0 0 150 150" style="enable-background:new 0 0 150 150;" xml:space="preserve">
<style type="text/css">
	.st0{fill:#BD1E2D;}
	.st1{fill:#FFFFFF;}
	.st2{fill:#E5E6E7;}
	.st3{fill:#C32C3B;}
	.st4{fill:#8D180F;}
	.st5{fill:#FEFEFE;}
	.st6{fill:#F0F1F0;}
	.st7{fill:#D0D2D3;}
	.st8{fill:#A2FFA3;}
	.st9{fill:#98F19A;}
	.st10{fill:#C9FFCF;}
	.st11{fill:#BAF0BD;}
	.st12{fill:#569767;}
	.st13{fill:#FFBBF3;}
	.st14{fill:#88DEDE;}
	.st15{fill:#F0F1F1;}
	.st16{fill:#72CED3;}
	.st17{fill:#FFA4F3;}
	.st18{fill:#A6A8AB;}
	.st19{fill:#F1DBBF;}
	.st20{fill:#E0CCB0;}
	.st21{fill:#CAB79C;}
	.st22{fill:#E783B9;}
	.st23{fill:#FFC94D;}
	.st24{fill:#FFD056;}
	.st25{fill:#FFBB15;}
	.st26{fill:#73C6FF;}
	.st27{fill:#73BAFF;}
	.st28{fill:#83CBFF;}
	.st29{fill:#6294BC;}
	.st30{fill:#F26F61;}
	.st31{fill:#FFDB9D;}
	.st32{fill:#E8BC7A;}
	.st33{fill:#FECD85;}
	.st34{fill:#F3F4F4;}
	.st35{fill:#F47B6C;}
	.st36{fill:#E6695C;}
	.st37{fill:#58595B;}
	.st38{fill:#989A9D;}
	.st39{fill:#808184;}
	.st40{fill:#6D6E71;}
	.st41{fill:#4B6984;}
	.st42{fill:#BBBDBF;}
	.st43{fill:#F6F6F6;}
	.st44{fill:#C1C3C4;}
	.st45{fill:#56C681;}
	.st46{fill:#E75C54;}
	.st47{fill:#929497;}
	.st48{fill:#A13021;}
	.st49{fill:#BB6388;}
	.st50{fill:#DCA0FF;}
	.st51{fill:#73DEEF;}
	.st52{fill:#73D1E5;}
	.st53{fill:#DC92FF;}
	.st54{fill:#726097;}
</style>
<g>
	<g>
		<path class="st50" d="M148.052,30v49.7c-2.9-4.05-7.64-6.7-13-6.7c-1.66,0-3.26,0.25-4.76,0.72l-0.23-0.68
			c-9.56-5.73-20.74-9.04-32.69-9.04c-2.36,0-4.63,0.17-6.91,0.42c-40.45,4.3-58.3,51.67-35.41,82.8v0.74h-25V99.24
			c-2.9,3.52-7.29,5.76-12.2,5.76c-8.73,0-15.8-7.07-15.8-15.8s7.07-15.8,15.8-15.8c4.91,0,9.3,2.24,12.2,5.75V30h48.44
			c-3.33-2.93-5.44-7.21-5.44-12c0-8.84,7.16-16,16-16s16,7.16,16,16c0,4.79-2.11,9.07-5.44,12H148.052z"/>
		<path class="st51" d="M148.052,98.3v49.66h-48.4c3.31-2.93,5.4-7.2,5.4-11.96c0-8.84-7.16-16-16-16s-16,7.16-16,16
			c0,4.76,2.09,9.03,5.4,11.96h-23.4v-0.74c-22.89-31.13-5.04-78.5,35.41-82.8c2.28-0.25,4.55-0.42,6.91-0.42
			c11.95,0,23.13,3.31,32.69,9.04l0.23,0.68c-6.51,2.02-11.24,8.1-11.24,15.28c0,8.84,7.16,16,16,16
			C140.412,105,145.152,102.35,148.052,98.3z"/>
		<g>
			<path class="st52" d="M73.052,136c0-3.445,1.098-6.626,2.948-9.237c-5.188-25.757,9.382-53.751,36.644-60.911
				C107.751,64.644,102.637,64,97.372,64c-2.36,0-4.63,0.17-6.91,0.42c-40.45,4.3-58.3,51.67-35.41,82.8v0.74h23.4
				C75.142,145.03,73.052,140.76,73.052,136z"/>
		</g>
		<path class="st53" d="M40.078,147.96c0.194-10.638,1.891-20.908,4.899-30.603c-0.414-21.015,11.555-41.664,32.166-49.715
			c18.946-16.785,43.722-27.131,70.909-27.616V30h-48.44c3.33-2.93,5.44-7.21,5.44-12c0-8.84-7.16-16-16-16s-16,7.16-16,16
			c0,4.79,2.11,9.07,5.44,12h-48.44v49.15c-2.9-3.51-7.29-5.75-12.2-5.75c-8.73,0-15.8,7.07-15.8,15.8c0,8.73,7.07,15.8,15.8,15.8
			c4.91,0,9.3-2.24,12.2-5.76v48.72H40.078z"/>
	</g>
	<path class="st54" d="M135.052,75c4.493,0,8.745,2.192,11.374,5.864c0.506,0.707,1.411,1.004,2.237,0.74
		c0.827-0.266,1.389-1.035,1.389-1.904V30c0-1.104-0.896-2-2-2h-44.048c1.968-2.935,3.048-6.41,3.048-10c0-9.925-8.075-18-18-18
		s-18,8.075-18,18c0,3.59,1.08,7.065,3.048,10H30.052c-1.104,0-2,0.896-2,2v44.604c-2.958-2.069-6.5-3.205-10.199-3.205
		c-9.815,0-17.801,7.985-17.801,17.8c0,9.814,7.985,17.8,17.801,17.8c3.7,0,7.242-1.137,10.199-3.208v44.168c0,1.104,0.896,2,2,2
		h48.4c0.831,0,1.575-0.514,1.87-1.291s0.078-1.655-0.545-2.206c-3.003-2.659-4.726-6.473-4.726-10.463c0-7.72,6.28-14,14-14
		s14,6.28,14,14c0,3.991-1.723,7.805-4.725,10.463c-0.623,0.551-0.84,1.429-0.545,2.206s1.039,1.291,1.87,1.291h48.399
		c1.104,0,2-0.896,2-2V98.3c0-0.869-0.562-1.639-1.389-1.904c-0.826-0.266-1.731,0.032-2.237,0.74
		c-2.629,3.672-6.881,5.864-11.374,5.864c-7.72,0-14-6.28-14-14S127.332,75,135.052,75z M30.727,97.357
		c-0.795-0.283-1.682-0.041-2.22,0.611C25.874,101.166,21.99,103,17.852,103c-7.609,0-13.801-6.19-13.801-13.8
		s6.191-13.8,13.801-13.8c4.136,0,8.021,1.831,10.657,5.023c0.538,0.652,1.427,0.896,2.219,0.608
		c0.794-0.285,1.323-1.038,1.323-1.882V32h46.44c0.832,0,1.577-0.515,1.871-1.294s0.075-1.658-0.55-2.208
		c-3.026-2.663-4.762-6.489-4.762-10.499c0-7.72,6.28-14,14-14s14,6.28,14,14c0,4.01-1.735,7.836-4.761,10.499
		c-0.625,0.55-0.844,1.429-0.55,2.208S98.78,32,99.612,32h46.439v42.773c-3.118-2.413-6.983-3.773-11-3.773
		c-1.316,0-2.596,0.151-3.833,0.42c-0.044-0.031-0.082-0.068-0.128-0.096C120.912,65.225,109.253,62,97.372,62
		c-2.176,0-4.44,0.137-7.122,0.431c-18.89,2.008-34.779,13.665-42.506,31.18c-7.592,17.212-6.009,36.992,4.011,52.349H32.052V99.24
		C32.052,98.396,31.521,97.643,30.727,97.357z M117.052,89c0,9.925,8.075,18,18,18c4.017,0,7.882-1.36,11-3.773v42.733h-42.023
		c1.952-2.926,3.023-6.388,3.023-9.96c0-9.925-8.075-18-18-18s-18,8.075-18,18c0,3.572,1.072,7.033,3.023,9.96H56.612
		c-10.621-14.501-12.62-33.931-5.207-50.734c7.141-16.189,21.821-26.962,39.275-28.817C93.219,66.13,95.346,66,97.372,66
		c10.129,0,20.084,2.504,28.984,7.25C120.815,76.322,117.052,82.228,117.052,89z"/>
</g>
</svg>
